PathFileType	4	(X/Y/Z)	Walk4.trc
DataRate	CameraRate	NumFrames	NumMarkers	Units	OrigDataRate	OrigDataStartFrame	OrigNumFrames
200.000000	200.000000	5	59	mm	200.000000	447	543
Frame#	Times		RFHD		CLAV		RBack		LASI		RACR1		RUA1		RElbow		RElbowM		RFA1		RWRR		RWRU		LACR1		LUA1		LFA1		LWRR		LWRU		RTH1		RTH3		RTH2		RTB3		RTB2		LTH1		LTH2		LTB2		RMT1		RCAR		LFHD		C7		RTB1		RTB4		RPSI		T10		LTH4		LBHD		LTH3		RLFC		STRN		RBHD		LLFC		LElbowM		LCAR		LTB4		RTH4		LTB1		LElbow		LPSI		LToe		LMMAL		RMT5		LCAL		RASI		LMT1		LMT5		LTB3		LLMAL		RToe		RCAL		RMMAL		RLMAL
			X1	Y1	Z1	X2	Y2	Z2	X3	Y3	Z3	X4	Y4	Z4	X5	Y5	Z5	X6	Y6	Z6	X7	Y7	Z7	X8	Y8	Z8	X9	Y9	Z9	X10	Y10	Z10	X11	Y11	Z11	X12	Y12	Z12	X13	Y13	Z13	X14	Y14	Z14	X15	Y15	Z15	X16	Y16	Z16	X17	Y17	Z17	X18	Y18	Z18	X19	Y19	Z19	X20	Y20	Z20	X21	Y21	Z21	X22	Y22	Z22	X23	Y23	Z23	X24	Y24	Z24	X25	Y25	Z25	X26	Y26	Z26	X27	Y27	Z27	X28	Y28	Z28	X29	Y29	Z29	X30	Y30	Z30	X31	Y31	Z31	X32	Y32	Z32	X33	Y33	Z33	X34	Y34	Z34	X35	Y35	Z35	X36	Y36	Z36	X37	Y37	Z37	X38	Y38	Z38	X39	Y39	Z39	X40	Y40	Z40	X41	Y41	Z41	X42	Y42	Z42	X43	Y43	Z43	X44	Y44	Z44	X45	Y45	Z45	X46	Y46	Z46	X47	Y47	Z47	X48	Y48	Z48	X49	Y49	Z49	X50	Y50	Z50	X51	Y51	Z51	X52	Y52	Z52	X53	Y53	Z53	X54	Y54	Z54	X55	Y55	Z55	X56	Y56	Z56	X57	Y57	Z57	X58	Y58	Z58	X59	Y59	Z59

447	2.235	449.86	1416.3	35.236	426.86	1178	-26.885	243.47	1145.3	101.51	392.16	814.32	-188.88	362.09	1214.2	154.49	376.21	1077.1	240.5	373.56	953.45	282.15	315.86	915.22	219.26	446.57	843.16	277.74	468.35	747.38	236.47	446.71	744.94	305.48	336.54	1203.9	-209.85	324.83	1043.5	-283.04	312.19	840.78	-346.31	341.25	727.84	-341.07	287.32	733.56	-374.88	329.88	629.92	180.41	301.06	467.6	127.04	369.88	545.8	135.99	219.5	116.51	21.324	215.13	200.92	87.086	357.08	646.91	-241.91	427.11	588.7	-194.64	494.28	235.04	-151.65	262.72	29.118	-15.792	497.85	696.28	285.73	458.81	1426.8	-60.415	287	1263.7	-21.579	281.18	275.34	48.454	247.52	195.55	35.026	152.85	844.88	38.03	197.78	1066.7	-3.4668	379.05	565.43	-221.99	330.7	1351	-90.233	399.77	484.67	-192.48	257.42	385.36	103.27	477.65	1071.3	-24.908	319.87	1345	42.27	449.34	406.48	-157.81	251.86	907.52	-230.03	320.15	679.77	-385.93	519.67	240.55	-95.468	313.48	549.06	156.2	502.41	326.62	-97.513	270.43	935.56	-300.61	141.13	839.58	-65.918	681.81	113.28	-112.29	539.97	95.243	-50.342	236.6	23.369	77.584	487.27	41.206	-74.986	410.67	823.71	142.43	647.23	95.403	-79.863	608.25	58.083	-151.84	542.91	160.41	-96.163	515.42	71.085	-125.62	320.81	28.739	21.26	96.792	47.843	8.4899	170.21	75.079	-28.123	157.71	65.519	54.721
448	2.24	454.98	1415.5	34.685	432.07	1177.3	-27.179	248.5	1144.5	100.89	397.72	813.06	-188.77	366.99	1213.5	154.06	381.34	1076.5	240.11	378.76	952.94	281.95	321.11	914.57	219.12	451.87	842.71	277.74	473.79	746.9	236.62	452.1	744.54	305.62	341.92	1203	-210.31	330.29	1042.6	-283.46	316.81	839.99	-346.99	345.07	726.82	-342.23	291.05	733.02	-375.79	334.21	629.54	180.41	304.24	467.38	127.06	373.66	545.06	136.12	220.24	116.65	21.35	216.55	201.1	87.081	362.09	645.55	-241.82	431.83	587.06	-194.44	501.96	234.97	-151.29	262.79	29.155	-15.783	503.26	695.86	285.97	463.94	1426	-60.97	292.11	1262.9	-22.134	283.32	274.94	48.547	248.95	195.43	35.046	158.03	844.31	37.279	202.99	1065.8	-4.1253	383.7	563.98	-221.94	335.84	1350.1	-90.76	404.12	483.15	-192.37	260.31	385.25	103.24	483.04	1070.7	-24.768	324.99	1344.3	41.741	454.16	405.52	-157.39	257.39	906.63	-230.3	323.45	679.08	-387.27	527.12	240.77	-95.037	317.23	548.76	156.19	508.42	326.6	-96.915	275.81	934.76	-300.92	146.71	838.74	-66.69	691.81	115.65	-111.82	549.71	95.668	-50.165	236.54	23.364	77.44	497.86	40.767	-74.99	415.81	823	142.61	657.18	97.418	-79.482	618.96	59.447	-151.54	551.68	160.95	-95.858	525.71	71.237	-125.53	320.88	28.664	21.351	96.966	48.952	8.3898	170.63	75.649	-28.141	158.01	66.141	54.684
449	2.245	460.1	1414.8	34.116	437.29	1176.5	-27.502	253.52	1143.6	100.22	403.3	811.78	-188.68	371.88	1212.8	153.59	386.48	1075.8	239.69	383.94	952.42	281.71	326.33	913.91	218.94	457.12	842.24	277.72	479.18	746.39	236.76	457.42	744.11	305.75	347.31	1202.1	-210.8	335.76	1041.6	-283.92	321.51	839.18	-347.69	349	725.81	-343.37	294.93	732.46	-376.71	338.63	629.16	180.42	307.52	467.18	127.08	377.54	544.34	136.26	221	116.83	21.393	218.02	201.31	87.095	367.08	644.23	-241.72	436.6	585.5	-194.26	509.32	234.79	-150.85	262.86	29.196	-15.766	508.61	695.41	286.21	469.08	1425.2	-61.544	297.22	1262	-22.729	285.52	274.54	48.649	250.43	195.34	35.086	163.24	843.75	36.515	208.21	1064.9	-4.8235	388.43	562.58	-221.88	340.98	1349.3	-91.314	408.64	481.71	-192.25	263.28	385.15	103.23	488.43	1070	-24.653	330.11	1343.5	41.184	459.08	404.57	-156.96	262.96	905.71	-230.61	326.91	678.35	-388.57	534.24	240.84	-94.524	321.06	548.46	156.19	514.33	326.46	-96.283	281.22	933.93	-301.25	152.33	837.91	-67.471	701.11	117.51	-111.16	558.73	95.953	-49.834	236.49	23.356	77.297	507.61	40.354	-74.848	420.93	822.36	142.81	666.38	99.009	-78.92	628.85	60.5	-151.06	559.9	161.32	-95.42	535.23	71.306	-125.28	320.95	28.61	21.438	97.151	50.131	8.3116	171.07	76.266	-28.137	158.34	66.809	54.666
450	2.25	465.22	1414	33.529	442.51	1175.8	-27.855	258.55	1142.8	99.52	408.91	810.47	-188.61	376.76	1212.1	153.09	391.63	1075.1	239.24	389.09	951.88	281.43	331.52	913.24	218.73	462.32	841.73	277.68	484.52	745.85	236.9	462.68	743.67	305.87	352.71	1201.2	-211.33	341.25	1040.7	-284.42	326.29	838.34	-348.4	353.05	724.78	-344.48	298.94	731.87	-377.62	343.14	628.79	180.42	310.91	466.99	127.12	381.53	543.63	136.41	221.79	117.04	21.457	219.56	201.54	87.133	372.08	642.94	-241.62	441.45	584.05	-194.11	516.35	234.49	-150.33	262.94	29.241	-15.741	513.9	694.95	286.46	474.21	1424.4	-62.135	302.33	1261.2	-23.366	287.79	274.15	48.762	251.97	195.27	35.15	168.47	843.19	35.742	213.45	1064	-5.5611	393.25	561.23	-221.82	346.13	1348.5	-91.894	413.33	480.35	-192.11	266.35	385.06	103.25	493.8	1069.4	-24.566	335.23	1342.7	40.598	464.11	403.64	-156.52	268.57	904.76	-230.95	330.52	677.59	-389.82	541.04	240.75	-93.928	325	548.16	156.18	520.16	326.17	-95.62	286.67	933.06	-301.62	158	837.1	-68.257	709.72	118.82	-110.31	567.03	96.065	-49.351	236.45	23.346	77.16	516.52	39.938	-74.562	426.02	821.77	143.04	674.83	100.14	-78.185	637.9	61.208	-150.4	567.6	161.49	-94.851	543.99	71.262	-124.87	321.02	28.576	21.52	97.35	51.384	8.2626	171.52	76.933	-28.108	158.68	67.524	54.669
451	2.255	470.35	1413.3	32.924	447.74	1175	-28.24	263.57	1141.9	98.776	414.54	809.15	-188.58	381.64	1211.3	152.56	396.77	1074.5	238.76	394.21	951.33	281.1	336.68	912.57	218.49	467.48	841.21	277.62	489.8	745.28	237.02	467.87	743.2	305.97	358.11	1200.3	-211.91	346.75	1039.7	-284.96	331.16	837.49	-349.13	357.22	723.74	-345.56	303.1	731.24	-378.52	347.76	628.43	180.42	314.43	466.79	127.18	385.63	542.93	136.56	222.61	117.28	21.543	221.15	201.79	87.198	377.1	641.68	-241.51	446.4	582.72	-193.98	523.06	234.06	-149.73	263.02	29.291	-15.709	519.13	694.46	286.72	479.35	1423.6	-62.744	307.45	1260.3	-24.047	290.13	273.75	48.889	253.55	195.21	35.239	173.72	842.64	34.962	218.71	1063.1	-6.3374	398.17	559.95	-221.74	351.28	1347.7	-92.503	418.2	479.08	-191.94	269.53	384.96	103.3	499.18	1068.7	-24.511	340.35	1341.9	39.985	469.25	402.74	-156.06	274.21	903.79	-231.34	334.28	676.8	-391.03	547.52	240.49	-93.254	329.05	547.86	156.18	525.9	325.74	-94.926	292.15	932.17	-302.02	163.71	836.29	-69.043	717.65	119.54	-109.28	574.6	95.981	-48.727	236.42	23.335	77.032	524.59	39.5	-74.143	431.09	821.25	143.28	682.54	100.77	-77.285	646.13	61.542	-149.58	574.77	161.45	-94.156	551.97	71.081	-124.31	321.08	28.558	21.594	97.567	52.716	8.2501	171.99	77.655	-28.053	159.06	68.289	54.697
